<svg height="456pt" viewBox="0 -4 456 456" width="456pt" xmlns="http://www.w3.org/2000/svg">
  <path
    d="m328 280h16c17.671875 0 32-14.328125 32-32s-14.328125-32-32-32h-16v-16h-128v80c0 35.347656 28.652344 64 64 64s64-28.652344 64-64zm0 0"
    fill="#ffffff"/>
  <path d="m440 112h-64v8h-56v16h56v8h64c8.835938 0 16-7.164062 16-16s-7.164062-16-16-16zm0 0" fill="#ffffff"/>
  <path d="m256 144h16v16h-16zm0 0" fill="#ffffff"/>
  <path
    d="m448 384h-448v24c.0273438 22.082031 17.917969 39.972656 40 40h368c22.082031-.027344 39.972656-17.917969 40-40zm-40 48h-368c-13.253906 0-24-10.746094-24-24 0-4.417969 3.582031-8 8-8s8 3.582031 8 8 3.582031 8 8 8h368c4.417969 0 8-3.582031 8-8s3.582031-8 8-8 8 3.582031 8 8c0 13.253906-10.746094 24-24 24zm0 0"
    fill="#ffffff"/>
  <path d="m216 104c0 13.253906 10.746094 24 24 24h48c13.253906 0 24-10.746094 24-24v-8h-96zm0 0" fill="#ffffff"/>
  <path d="m176 352h232v16h-232zm0 0" fill="#ffffff"/>
  <path
    d="m80 248c-13.253906 0-24 10.746094-24 24s10.746094 24 24 24 24-10.746094 24-24-10.746094-24-24-24zm0 32c-4.417969 0-8-3.582031-8-8s3.582031-8 8-8 8 3.582031 8 8-3.582031 8-8 8zm0 0"
    fill="#ffffff"/>
  <path d="m336 48h8c4.417969 0 8-3.582031 8-8s-3.582031-8-8-8h-8c-4.417969 0-8 3.582031-8 8s3.582031 8 8 8zm0 0"
        fill="#ffffff"/>
  <path
    d="m104 160h-48c-4.417969 0-8 3.582031-8 8v144c0 4.417969 3.582031 8 8 8h48c4.417969 0 8-3.582031 8-8v-144c0-4.417969-3.582031-8-8-8zm-24 64c-13.253906 0-24-10.746094-24-24s10.746094-24 24-24 24 10.746094 24 24-10.746094 24-24 24zm0 0"
    fill="#ffffff"/>
  <path d="m88 200c0 4.417969-3.582031 8-8 8s-8-3.582031-8-8 3.582031-8 8-8 8 3.582031 8 8zm0 0" fill="#ffffff"/>
  <path
    d="m320 0h-320v368h160v-280c0-4.417969 3.582031-8 8-8h208v-24c-.035156-30.914062-25.085938-55.9648438-56-56zm-304 40c0-4.417969 3.582031-8 8-8h8c4.417969 0 8 3.582031 8 8s-3.582031 8-8 8h-8c-4.417969 0-8-3.582031-8-8zm112 272c0 13.253906-10.746094 24-24 24h-48c-13.253906 0-24-10.746094-24-24v-144c0-13.253906 10.746094-24 24-24h48c13.253906 0 24 10.746094 24 24zm184-264h-256c-4.417969 0-8-3.582031-8-8s3.582031-8 8-8h256c4.417969 0 8 3.582031 8 8s-3.582031 8-8 8zm0 0"
    fill="#ffffff"/>
</svg>
