<svg id="Layer_1" enable-background="new 0 0 512 512" height="512" viewBox="0 0 512 512" width="512"
     xmlns="http://www.w3.org/2000/svg">
  <g>
    <path
      d="m512 353.467v-194.934h-512v194.934h90.242c-16.095-17.077-25.975-40.072-25.975-65.333 0-52.567 42.767-95.333 95.333-95.333 17.563 0 34.028 4.779 48.173 13.098 14.57-8.59 31.043-13.098 48.226-13.098 17.563 0 34.028 4.779 48.174 13.098 14.57-8.59 31.043-13.098 48.226-13.098 52.567 0 95.333 42.767 95.333 95.333 0 25.262-9.88 48.257-25.975 65.333z"
      fill="#ffffff"/>
    <path
      d="m512 128.533v-113.533c0-8.284-6.716-15-15-15h-482c-8.284 0-15 6.716-15 15v113.533zm-111.4-64.266c8.273 0 15 6.72 15 15 0 8.272-6.727 15-15 15-8.28 0-15-6.728-15-15 0-8.28 6.72-15 15-15zm-96.4 0c8.273 0 15 6.72 15 15 0 8.272-6.727 15-15 15-8.28 0-15-6.728-15-15 0-8.28 6.72-15 15-15zm-96.4 0c8.273 0 15 6.72 15 15 0 8.272-6.727 15-15 15-8.28 0-15-6.728-15-15 0-8.28 6.72-15 15-15zm-96.4 0c8.273 0 15 6.72 15 15 0 8.272-6.727 15-15 15-8.28 0-15-6.728-15-15 0-8.28 6.72-15 15-15z"
      fill="#ffffff"/>
    <path
      d="m352.4 353.467c36.025 0 65.333-29.309 65.333-65.333s-29.308-65.334-65.333-65.334c-8.042 0-15.857 1.436-23.184 4.221 14.237 16.949 22.117 38.335 22.117 61.113 0 22.776-7.881 44.161-22.121 61.11 7.327 2.786 15.143 4.223 23.188 4.223z"
      fill="#ffffff"/>
    <path
      d="m256 353.467c36.025 0 65.333-29.309 65.333-65.333s-29.308-65.334-65.333-65.334c-8.042 0-15.858 1.436-23.184 4.221 14.237 16.949 22.117 38.334 22.117 61.113 0 22.776-7.881 44.161-22.121 61.11 7.327 2.786 15.143 4.223 23.188 4.223z"
      fill="#ffffff"/>
    <ellipse cx="159.6" cy="288.133" rx="65.334" ry="65.333" transform="matrix(.383 -.924 .924 .383 -167.677 325.321)"
             fill="#ffffff"/>
    <path d="m0 383.467v113.533c0 8.284 6.716 15 15 15h482c8.284 0 15-6.716 15-15v-113.533z" fill="#ffffff"/>
  </g>
</svg>
