<?xml version="1.0" encoding="iso-8859-1"?>
<svg version="1.1" id="Capa_1" xmlns="http://www.w3.org/2000/svg" xmlns:xlink="http://www.w3.org/1999/xlink" x="0px"
     y="0px"
     viewBox="0 0 431.104 431.104" style="enable-background:new 0 0 431.104 431.104;" xml:space="preserve">
<g>
	<g>
		<path d="M301.308,0H130.3C99.068,0,73.98,25.088,73.98,56.32v97.28h283.136V56.32C357.628,25.088,332.028,0,301.308,0z
			 M157.948,111.616c0,8.704-6.656,15.36-15.36,15.36s-15.36-6.656-15.36-15.36V69.632c0-8.704,6.656-15.36,15.36-15.36
			s15.36,6.656,15.36,15.36V111.616z" fill="#ffffff"/>
	</g>
</g>
  <g>
	<g>
		<path d="M73.98,178.688v196.096c0,31.232,25.088,56.32,56.32,56.32h170.496c31.232,0,56.32-25.088,56.32-56.32V178.688H73.98z
			 M157.948,262.656c0,8.704-6.656,15.36-15.36,15.36s-15.36-6.656-15.36-15.36v-41.984c0-8.704,6.656-15.36,15.36-15.36
			s15.36,6.656,15.36,15.36V262.656z" fill="#ffffff"/>
	</g>
</g>
</svg>
