<?xml version="1.0" encoding="iso-8859-1"?>
<svg version="1.1" id="Capa_1" xmlns="http://www.w3.org/2000/svg" xmlns:xlink="http://www.w3.org/1999/xlink" x="0px"
     y="0px"
     viewBox="0 0 512.001 512.001" style="enable-background:new 0 0 512.001 512.001;" xml:space="preserve">
<g>
	<g>
		<path d="M479.045,70.54c-11.615-8.768-14.094-25.471-5.522-37.233l6.885-9.449c4.877-6.692,3.403-16.07-3.288-20.947
			c-6.691-4.875-16.071-3.402-20.946,3.289l-6.885,9.449c-8.833,12.121-12.485,26.968-10.285,41.805
			c2.201,14.836,10.006,27.984,21.977,37.021c10.75,8.114,13.816,23.051,7.135,34.744l-12.842,22.469
			c-4.108,7.189-1.611,16.347,5.578,20.456c2.347,1.341,4.902,1.978,7.425,1.978c5.204,0,10.264-2.714,13.031-7.556l12.842-22.47
			C508.295,119.339,501.802,87.718,479.045,70.54z" fill="#ffffff"/>
	</g>
</g>
  <g>
	<g>
		<path d="M387.525,70.506c-11.617-8.768-14.094-25.471-5.522-37.233l6.885-9.449c4.877-6.692,3.404-16.07-3.288-20.947
			c-6.693-4.879-16.071-3.403-20.946,3.288l-6.885,9.449c-8.833,12.122-12.485,26.968-10.285,41.805
			c2.201,14.836,10.006,27.984,21.977,37.019c10.75,8.114,13.816,23.051,7.134,34.745l-12.841,22.469
			c-4.108,7.19-1.61,16.347,5.578,20.456c2.347,1.341,4.903,1.978,7.425,1.978c5.205,0,10.264-2.714,13.031-7.556l12.841-22.469
			C416.774,119.306,410.282,87.684,387.525,70.506z" fill="#ffffff"/>
	</g>
</g>
  <g>
	<g>
		<path d="M437.858,250.586c-11.615-8.768-14.094-25.471-5.522-37.233l6.885-9.449c4.877-6.692,3.403-16.07-3.288-20.946
			c-6.692-4.877-16.071-3.403-20.946,3.288l-6.885,9.449c-8.833,12.121-12.485,26.968-10.285,41.805
			c2.201,14.836,10.006,27.984,21.977,37.021c10.75,8.114,13.816,23.051,7.135,34.744l-12.842,22.469
			c-4.108,7.189-1.611,16.347,5.578,20.456c2.347,1.341,4.902,1.978,7.425,1.978c5.204,0,10.264-2.714,13.031-7.556l12.842-22.47
			C467.108,299.386,460.615,267.764,437.858,250.586z" fill="#ffffff"/>
	</g>
</g>
  <g>
	<g>
		<path d="M264.501,304.152l-53.098-19.078v-16.27l17.985,6.234c1.692,0.593,3.466,0.887,5.238,0.887
			c2.386,0,4.768-0.533,6.941-1.588l45.726-22.066l0.172-0.084c18.104-9.024,25.495-31.095,16.472-49.203
			c-9.023-18.107-31.095-25.497-49.204-16.473L231,198.339l-19.479-6.723v-8.947h-0.119c0-11.023-4.352-21.326-12.253-29.014
			c-7.9-7.686-18.307-11.754-29.354-11.449c-21.698,0.596-39.349,18.985-39.349,40.994v120.595
			c0,22.858,14.453,43.409,35.964,51.139l31.083,11.169l-100.369,0.141c-31.344,0.044-58.87,20.117-68.495,49.949L12.07,467.527
			c-3.378,10.473-1.601,21.581,4.876,30.477c6.477,8.895,16.504,13.997,27.508,13.997h138.354c14.161,0,25.99-11.069,26.928-25.2
			l6.171-92.976v76.415c0,22.009,17.653,40.398,39.35,40.993c0.384,0.011,0.766,0.016,1.146,0.016
			c10.603,0,20.582-4.046,28.207-11.465c7.901-7.687,12.253-17.992,12.253-29.013v-120.6
			C296.864,329.601,283.858,311.108,264.501,304.152z" fill="#ffffff"/>
	</g>
</g>
  <g>
	<g>
		<path d="M170.631,31.889c-27.074,0-49.101,22.027-49.101,49.101s22.027,49.101,49.101,49.101
			c27.074,0,49.101-22.027,49.101-49.101S197.705,31.889,170.631,31.889z" fill="#ffffff"/>
	</g>
</g>
</svg>
